999
dxflib 3.17.0.0
  0
SECTION
  2
HEADER
  9
$ACADVER
  1
AC1015
  9
$HANDSEED
  5
FFFF
  9
$ANGBASE
 50
0.0
  9
$ANGDIR
 70
0
  9
$ATTMODE
 70
1
  9
$AUNITS
 70
0
  9
$AUPREC
 70
0
  9
$CECOLOR
 62
256
  9
$CELTSCALE
 40
1.0
  9
$CHAMFERA
 40
0.0
  9
$CHAMFERB
 40
0.0
  9
$CHAMFERC
 40
0.0
  9
$CHAMFERD
 40
0.0
  9
$CMLJUST
 70
0
  9
$CMLSCALE
 40
20.0
  9
$DIMADEC
 70
0
  9
$DIMALT
 70
0
  9
$DIMALTD
 70
3
  9
$DIMALTF
 40
0.0393700787
  9
$DIMALTRND
 40
0.0
  9
$DIMALTTD
 70
3
  9
$DIMALTTZ
 70
0
  9
$DIMALTU
 70
2
  9
$DIMALTZ
 70
0
  9
$DIMAPOST
  1

  9
$DIMASZ
 40
2.5
  9
$DIMATFIT
 70
3
  9
$DIMAUNIT
 70
0
  9
$DIMAZIN
 70
0
  9
$DIMBLK
  1

  9
$DIMBLK1
  1

  9
$DIMBLK2
  1

  9
$DIMCEN
 40
2.5
  9
$DIMCLRD
 70
0
  9
$DIMCLRE
 70
0
  9
$DIMCLRT
 70
0
  9
$DIMDEC
 70
2
  9
$DIMDLE
 40
0.0
  9
$DIMDLI
 40
3.75
  9
$DIMDSEP
 70
44
  9
$DIMEXE
 40
1.25
  9
$DIMEXO
 40
0.625
  9
$DIMFRAC
 70
0
  9
$DIMGAP
 40
0.625
  9
$DIMJUST
 70
0
  9
$DIMLDRBLK
  1

  9
$DIMLFAC
 40
1.0
  9
$DIMLIM
 70
0
  9
$DIMLUNIT
 70
2
  9
$DIMLWD
 70
-2
  9
$DIMLWE
 70
-2
  9
$DIMPOST
  1

  9
$DIMRND
 40
0.0
  9
$DIMSAH
 70
0
  9
$DIMSCALE
 40
1.0
  9
$DIMSD1
 70
0
  9
$DIMSD2
 70
0
  9
$DIMSE1
 70
0
  9
$DIMSE2
 70
0
  9
$DIMSOXD
 70
0
  9
$DIMTAD
 70
1
  9
$DIMTDEC
 70
2
  9
$DIMTFAC
 40
1.0
  9
$DIMTIH
 70
0
  9
$DIMTIX
 70
0
  9
$DIMTM
 40
0.0
  9
$DIMTOFL
 70
1
  9
$DIMTOH
 70
0
  9
$DIMTOL
 70
0
  9
$DIMTOLJ
 70
0
  9
$DIMTP
 40
0.0
  9
$DIMTSZ
 40
0.0
  9
$DIMTVP
 40
0.0
  9
$DIMTXSTY
  7
Standard
  9
$DIMTXT
 40
2.5
  9
$DIMTZIN
 70
8
  9
$DIMUPT
 70
0
  9
$DIMZIN
 70
8
  9
$DISPSILH
 70
0
  9
$DWGCODEPAGE
  3
ANSI_1252
  9
$ELEVATION
 40
0.0
  9
$EXTMAX
 10
420.0
 20
297.0
 30
0.0
  9
$EXTMIN
 10
0.0
 20
0.0
 30
0.0
  9
$FILLETRAD
 40
10.0
  9
$FILLMODE
 70
1
  9
$INSBASE
 10
0.0
 20
0.0
 30
0.0
  9
$INSUNITS
 70
4
  9
$LIMCHECK
 70
0
  9
$LIMMAX
 10
420.0
 20
297.0
  9
$LIMMIN
 10
0.0
 20
0.0
  9
$LTSCALE
 40
1.0
  9
$LUNITS
 70
2
  9
$LUPREC
 70
4
  9
$MAXACTVP
 70
64
  9
$MEASUREMENT
 70
1
  9
$MIRRTEXT
 70
1
  9
$ORTHOMODE
 70
0
  9
$PDMODE
 70
0
  9
$PDSIZE
 40
0.0
  9
$PELEVATION
 40
0.0
  9
$PEXTMAX
 10
420.0
 20
297.0
 30
0.0
  9
$PEXTMIN
 10
0.0
 20
0.0
 30
0.0
  9
$PINSBASE
 10
0.0
 20
0.0
 30
0.0
  9
$PLIMCHECK
 70
0
  9
$PLIMMAX
 10
420.0
 20
297.0
  9
$PLIMMIN
 10
0.0
 20
0.0
  9
$PLINEGEN
 70
0
  9
$PLINEWID
 40
0.0
  9
$PROXYGRAPHICS
 70
1
  9
$PSLTSCALE
 70
1
  9
$PUCSNAME
  2

  9
$PUCSORG
 10
0.0
 20
0.0
 30
0.0
  9
$PUCSXDIR
 10
1.0
 20
0.0
 30
0.0
  9
$PUCSYDIR
 10
0.0
 20
1.0
 30
0.0
  9
$QTEXTMODE
 70
0
  9
$REGENMODE
 70
1
  9
$SHADEDGE
 70
3
  9
$SHADEDIF
 70
70
  9
$SKETCHINC
 40
1.0
  9
$SKPOLY
 70
0
  9
$SPLFRAME
 70
0
  9
$SPLINESEGS
 70
8
  9
$SPLINETYPE
 70
6
  9
$SURFTAB1
 70
6
  9
$SURFTAB2
 70
6
  9
$SURFTYPE
 70
6
  9
$SURFU
 70
6
  9
$SURFV
 70
6
  9
$TEXTSIZE
 40
10.5
  9
$TEXTSTYLE
  7
Standard
  9
$THICKNESS
 40
0.0
  9
$TILEMODE
 70
1
  9
$TRACEWID
 40
1.0
  9
$TREEDEPTH
 70
3020
  9
$UCSNAME
  2

  9
$UCSORG
 10
0.0
 20
0.0
 30
0.0
  9
$UCSXDIR
 10
1.0
 20
0.0
 30
0.0
  9
$UCSYDIR
 10
0.0
 20
1.0
 30
0.0
  9
$UNITMODE
 70
0
  9
$USERI1
 70
0
  9
$USERI2
 70
0
  9
$USERI3
 70
0
  9
$USERI4
 70
0
  9
$USERI5
 70
0
  9
$USERR1
 40
0.0
  9
$USERR2
 40
0.0
  9
$USERR3
 40
0.0
  9
$USERR4
 40
0.0
  9
$USERR5
 40
0.0
  9
$USRTIMER
 70
1
  9
$VISRETAIN
 70
1
  0
ENDSEC
  0
SECTION
  2
TABLES
  0
TABLE
  2
VPORT
  5
8
100
AcDbSymbolTable
 70
1
  0
VPORT
  5
30
100
AcDbSymbolTableRecord
100
AcDbViewportTableRecord
  2
*Active
 70
0
 10
0.0
 20
0.0
 11
1.0
 21
1.0
 12
286.3055555555554861
 22
148.5
 13
0.0
 23
0.0
 14
10.0
 24
10.0
 15
10.0
 25
10.0
 16
0.0
 26
0.0
 36
1.0
 17
0.0
 27
0.0
 37
0.0
 40
297.0
 41
1.92798353909465
 42
50.0
 43
0.0
 44
0.0
 50
0.0
 51
0.0
 71
0
 72
100
 73
1
 74
3
 75
1
 76
1
 77
0
 78
0
281
0
 65
1
110
0.0
120
0.0
130
0.0
111
1.0
121
0.0
131
0.0
112
0.0
122
1.0
132
0.0
 79
0
146
0.0
  0
ENDTAB
  0
TABLE
  2
LTYPE
  5
5
100
AcDbSymbolTable
 70
41
  0
LTYPE
  5
16
100
AcDbSymbolTableRecord
100
AcDbLinetypeTableRecord
  2
Continuous
 70
0
  3
Solid line
 72
65
 73
0
 40
0.0
  0
LTYPE
  5
31
100
AcDbSymbolTableRecord
100
AcDbLinetypeTableRecord
  2
BORDERX2
 70
0
  3
Border (2x) ____  ____  .  ____  ____  .  ___
 72
65
 73
6
 40
88.8999999999999773
 49
25.3999999999999986
 74
0
 49
-12.6999999999999993
 74
0
 49
25.3999999999999986
 74
0
 49
-12.6499999999999986
 74
0
 49
0.1
 74
0
 49
-12.6499999999999986
 74
0
  0
LTYPE
  5
32
100
AcDbSymbolTableRecord
100
AcDbLinetypeTableRecord
  2
ACAD_ISO06W100
 70
0
  3
ISO long-dash triple-dot ____ ... ____ ... ____
 72
65
 73
8
 40
36.0000000000000071
 49
24.0
 74
0
 49
-2.9500000000000002
 74
0
 49
0.1
 74
0
 49
-2.9000000000000004
 74
0
 49
0.1
 74
0
 49
-2.9000000000000004
 74
0
 49
0.1
 74
0
 49
-2.9500000000000002
 74
0
  0
LTYPE
  5
33
100
AcDbSymbolTableRecord
100
AcDbLinetypeTableRecord
  2
DASHDOT
 70
0
  3
Dash dot __ . __ . __ . __ . __ . __ . __ . __
 72
65
 73
4
 40
25.4000000000000021
 49
12.6999999999999993
 74
0
 49
-6.2999999999999998
 74
0
 49
0.1
 74
0
 49
-6.2999999999999998
 74
0
  0
LTYPE
  5
34
100
AcDbSymbolTableRecord
100
AcDbLinetypeTableRecord
  2
ACAD_ISO14W100
 70
0
  3
ISO dash triple-dot __ . . . __ . . . __ . . . _
 72
65
 73
8
 40
24.0000000000000036
 49
12.0
 74
0
 49
-2.9500000000000002
 74
0
 49
0.1
 74
0
 49
-2.9000000000000004
 74
0
 49
0.1
 74
0
 49
-2.9000000000000004
 74
0
 49
0.1
 74
0
 49
-2.9500000000000002
 74
0
  0
LTYPE
  5
35
100
AcDbSymbolTableRecord
100
AcDbLinetypeTableRecord
  2
ACAD_ISO12W100
 70
0
  3
ISO dash double-dot __ . . __ . . __ . . __ . . 
 72
65
 73
6
 40
21.0
 49
12.0
 74
0
 49
-2.9500000000000002
 74
0
 49
0.1
 74
0
 49
-2.9000000000000004
 74
0
 49
0.1
 74
0
 49
-2.9500000000000002
 74
0
  0
LTYPE
  5
36
100
AcDbSymbolTableRecord
100
AcDbLinetypeTableRecord
  2
ACAD_ISO09W100
 70
0
  3
ISO long-dash double-short-dash ____ __ __ ____
 72
65
 73
6
 40
45.0
 49
24.0
 74
0
 49
-3.0
 74
0
 49
6.0
 74
0
 49
-3.0
 74
0
 49
6.0
 74
0
 49
-3.0
 74
0
  0
LTYPE
  5
37
100
AcDbSymbolTableRecord
100
AcDbLinetypeTableRecord
  2
HIDDEN
 70
0
  3
Hidden __ __ __ __ __ __ __ __ __ __ __ __ __ __
 72
65
 73
2
 40
9.5249999999999986
 49
6.3499999999999996
 74
0
 49
-3.1749999999999998
 74
0
  0
LTYPE
  5
38
100
AcDbSymbolTableRecord
100
AcDbLinetypeTableRecord
  2
DASHDOTX2
 70
0
  3
Dash dot (2x) ____  .  ____  .  ____  .  ___
 72
65
 73
4
 40
50.7999999999999972
 49
25.3999999999999986
 74
0
 49
-12.6499999999999986
 74
0
 49
0.1
 74
0
 49
-12.6499999999999986
 74
0
  0
LTYPE
  5
39
100
AcDbSymbolTableRecord
100
AcDbLinetypeTableRecord
  2
ACAD_ISO07W100
 70
0
  3
ISO dot . . . . . . . . . . . . . . . . . . . . 
 72
65
 73
2
 40
3.0
 49
0.1
 74
0
 49
-2.8999999999999999
 74
0
  0
LTYPE
  5
3A
100
AcDbSymbolTableRecord
100
AcDbLinetypeTableRecord
  2
ACAD_ISO08W100
 70
0
  3
ISO long-dash short-dash ____ __ ____ __ ____ _
 72
65
 73
4
 40
36.0
 49
24.0
 74
0
 49
-3.0
 74
0
 49
6.0
 74
0
 49
-3.0
 74
0
  0
LTYPE
  5
3B
100
AcDbSymbolTableRecord
100
AcDbLinetypeTableRecord
  2
DIVIDEX2
 70
0
  3
Divide (2x) ________  .  .  ________  .  .  _
 72
65
 73
6
 40
63.5
 49
25.3999999999999986
 74
0
 49
-12.6499999999999986
 74
0
 49
0.1
 74
0
 49
-12.5999999999999979
 74
0
 49
0.1
 74
0
 49
-12.6499999999999986
 74
0
  0
LTYPE
  5
3C
100
AcDbSymbolTableRecord
100
AcDbLinetypeTableRecord
  2
ACAD_ISO04W100
 70
0
  3
ISO long-dash dot ____ . ____ . ____ . ____ . _
 72
65
 73
4
 40
30.0
 49
24.0
 74
0
 49
-2.9500000000000002
 74
0
 49
0.1
 74
0
 49
-2.9500000000000002
 74
0
  0
LTYPE
  5
3D
100
AcDbSymbolTableRecord
100
AcDbLinetypeTableRecord
  2
ACAD_ISO03W100
 70
0
  3
ISO dash space __    __    __    __    __    __
 72
65
 73
2
 40
30.0
 49
12.0
 74
0
 49
-18.0
 74
0
  0
LTYPE
  5
3E
100
AcDbSymbolTableRecord
100
AcDbLinetypeTableRecord
  2
PHANTOM
 70
0
  3
Phantom ______  __  __  ______  __  __  ______ 
 72
65
 73
6
 40
63.5000000000000071
 49
31.75
 74
0
 49
-6.3499999999999996
 74
0
 49
6.3499999999999996
 74
0
 49
-6.3499999999999996
 74
0
 49
6.3499999999999996
 74
0
 49
-6.3499999999999996
 74
0
  0
LTYPE
  5
3F
100
AcDbSymbolTableRecord
100
AcDbLinetypeTableRecord
  2
DASHED2
 70
0
  3
Dashed (.5x) _ _ _ _ _ _ _ _ _ _ _ _ _ _ _ _ _ 
 72
65
 73
2
 40
9.5249999999999986
 49
6.3499999999999996
 74
0
 49
-3.1749999999999998
 74
0
  0
LTYPE
  5
40
100
AcDbSymbolTableRecord
100
AcDbLinetypeTableRecord
  2
ACAD_ISO02W100
 70
0
  3
ISO dash __ __ __ __ __ __ __ __ __ __ __ __ __
 72
65
 73
2
 40
15.0
 49
12.0
 74
0
 49
-3.0
 74
0
  0
LTYPE
  5
41
100
AcDbSymbolTableRecord
100
AcDbLinetypeTableRecord
  2
DOT2
 70
0
  3
Dot (.5x) ........................................
 72
65
 73
2
 40
3.1749999999999998
 49
0.1
 74
0
 49
-3.0749999999999997
 74
0
  0
LTYPE
  5
42
100
AcDbSymbolTableRecord
100
AcDbLinetypeTableRecord
  2
ACAD_ISO05W100
 70
0
  3
ISO long-dash double-dot ____ .. ____ .. ____ . 
 72
65
 73
6
 40
33.0000000000000071
 49
24.0
 74
0
 49
-2.9500000000000002
 74
0
 49
0.1
 74
0
 49
-2.9000000000000004
 74
0
 49
0.1
 74
0
 49
-2.9500000000000002
 74
0
  0
LTYPE
  5
43
100
AcDbSymbolTableRecord
100
AcDbLinetypeTableRecord
  2
ACAD_ISO13W100
 70
0
  3
ISO double-dash double-dot __ __ . . __ __ . . _
 72
65
 73
8
 40
36.0000000000000071
 49
12.0
 74
0
 49
-3.0
 74
0
 49
12.0
 74
0
 49
-2.9500000000000002
 74
0
 49
0.1
 74
0
 49
-2.9000000000000004
 74
0
 49
0.1
 74
0
 49
-2.9500000000000002
 74
0
  0
LTYPE
  5
44
100
AcDbSymbolTableRecord
100
AcDbLinetypeTableRecord
  2
HIDDENX2
 70
0
  3
Hidden (2x) ____ ____ ____ ____ ____ ____ ____ 
 72
65
 73
2
 40
19.0499999999999972
 49
12.6999999999999993
 74
0
 49
-6.3499999999999996
 74
0
  0
LTYPE
  5
14
100
AcDbSymbolTableRecord
100
AcDbLinetypeTableRecord
  2
ByBlock
 70
0
  3

 72
65
 73
0
 40
0.0
  0
LTYPE
  5
45
100
AcDbSymbolTableRecord
100
AcDbLinetypeTableRecord
  2
BORDER
 70
0
  3
Border __ __ . __ __ . __ __ . __ __ . __ __ .
 72
65
 73
6
 40
44.4499999999999957
 49
12.6999999999999993
 74
0
 49
-6.3499999999999996
 74
0
 49
12.6999999999999993
 74
0
 49
-6.2999999999999998
 74
0
 49
0.1
 74
0
 49
-6.2999999999999998
 74
0
  0
LTYPE
  5
46
100
AcDbSymbolTableRecord
100
AcDbLinetypeTableRecord
  2
DASHEDX2
 70
0
  3
Dashed (2x) ____  ____  ____  ____  ____  ___
 72
65
 73
2
 40
38.0999999999999943
 49
25.3999999999999986
 74
0
 49
-12.6999999999999993
 74
0
  0
LTYPE
  5
47
100
AcDbSymbolTableRecord
100
AcDbLinetypeTableRecord
  2
CENTERX2
 70
0
  3
Center (2x) ________  __  ________  __  _____
 72
65
 73
4
 40
101.6000000000000085
 49
63.5
 74
0
 49
-12.6999999999999993
 74
0
 49
12.6999999999999993
 74
0
 49
-12.6999999999999993
 74
0
  0
LTYPE
  5
48
100
AcDbSymbolTableRecord
100
AcDbLinetypeTableRecord
  2
PHANTOMX2
 70
0
  3
Phantom (2x) ____________    ____    ____   _
 72
65
 73
6
 40
127.0000000000000142
 49
63.5
 74
0
 49
-12.6999999999999993
 74
0
 49
12.6999999999999993
 74
0
 49
-12.6999999999999993
 74
0
 49
12.6999999999999993
 74
0
 49
-12.6999999999999993
 74
0
  0
LTYPE
  5
49
100
AcDbSymbolTableRecord
100
AcDbLinetypeTableRecord
  2
CENTER2
 70
0
  3
Center (.5x) ___ _ ___ _ ___ _ ___ _ ___ _ ___
 72
65
 73
4
 40
28.5750000000000028
 49
19.0500000000000007
 74
0
 49
-3.1749999999999998
 74
0
 49
3.1749999999999998
 74
0
 49
-3.1749999999999998
 74
0
  0
LTYPE
  5
4A
100
AcDbSymbolTableRecord
100
AcDbLinetypeTableRecord
  2
DIVIDE2
 70
0
  3
Divide (.5x) __..__..__..__..__..__..__..__.._
 72
65
 73
6
 40
15.8749999999999982
 49
6.3499999999999996
 74
0
 49
-3.125
 74
0
 49
0.1
 74
0
 49
-3.0750000000000002
 74
0
 49
0.1
 74
0
 49
-3.125
 74
0
  0
LTYPE
  5
4B
100
AcDbSymbolTableRecord
100
AcDbLinetypeTableRecord
  2
DASHED
 70
0
  3
Dashed __ __ __ __ __ __ __ __ __ __ __ __ __ _
 72
65
 73
2
 40
19.0499999999999972
 49
12.6999999999999993
 74
0
 49
-6.3499999999999996
 74
0
  0
LTYPE
  5
4C
100
AcDbSymbolTableRecord
100
AcDbLinetypeTableRecord
  2
DIVIDE
 70
0
  3
Divide ____ . . ____ . . ____ . . ____ . . ____
 72
65
 73
6
 40
31.7500000000000036
 49
12.6999999999999993
 74
0
 49
-6.2999999999999998
 74
0
 49
0.1
 74
0
 49
-6.25
 74
0
 49
0.1
 74
0
 49
-6.2999999999999998
 74
0
  0
LTYPE
  5
4D
100
AcDbSymbolTableRecord
100
AcDbLinetypeTableRecord
  2
HIDDEN2
 70
0
  3
Hidden (.5x) _ _ _ _ _ _ _ _ _ _ _ _ _ _ _ _ _ 
 72
65
 73
2
 40
4.7624999999999993
 49
3.1749999999999998
 74
0
 49
-1.5874999999999999
 74
0
  0
LTYPE
  5
4E
100
AcDbSymbolTableRecord
100
AcDbLinetypeTableRecord
  2
DOT
 70
0
  3
Dot . . . . . . . . . . . . . . . . . . . . . . . .
 72
65
 73
2
 40
6.3499999999999996
 49
0.1
 74
0
 49
-6.25
 74
0
  0
LTYPE
  5
4F
100
AcDbSymbolTableRecord
100
AcDbLinetypeTableRecord
  2
ACAD_ISO15W100
 70
0
  3
ISO double-dash triple-dot __ __ . . . __ __ . .
 72
65
 73
10
 40
39.0000000000000071
 49
12.0
 74
0
 49
-3.0
 74
0
 49
12.0
 74
0
 49
-2.9500000000000002
 74
0
 49
0.1
 74
0
 49
-2.9000000000000004
 74
0
 49
0.1
 74
0
 49
-2.9000000000000004
 74
0
 49
0.1
 74
0
 49
-2.9500000000000002
 74
0
  0
LTYPE
  5
50
100
AcDbSymbolTableRecord
100
AcDbLinetypeTableRecord
  2
BORDER2
 70
0
  3
Border (.5x) __.__.__.__.__.__.__.__.__.__.__.
 72
65
 73
6
 40
22.2250000000000014
 49
6.3499999999999996
 74
0
 49
-3.1749999999999998
 74
0
 49
6.3499999999999996
 74
0
 49
-3.125
 74
0
 49
0.1
 74
0
 49
-3.125
 74
0
  0
LTYPE
  5
51
100
AcDbSymbolTableRecord
100
AcDbLinetypeTableRecord
  2
ACAD_ISO11W100
 70
0
  3
ISO double-dash dot __ __ . __ __ . __ __ . __ _
 72
65
 73
6
 40
33.0
 49
12.0
 74
0
 49
-3.0
 74
0
 49
12.0
 74
0
 49
-2.9500000000000002
 74
0
 49
0.1
 74
0
 49
-2.9500000000000002
 74
0
  0
LTYPE
  5
52
100
AcDbSymbolTableRecord
100
AcDbLinetypeTableRecord
  2
ACAD_ISO10W100
 70
0
  3
ISO dash dot __ . __ . __ . __ . __ . __ . __ . 
 72
65
 73
4
 40
18.0
 49
12.0
 74
0
 49
-2.9500000000000002
 74
0
 49
0.1
 74
0
 49
-2.9500000000000002
 74
0
  0
LTYPE
  5
53
100
AcDbSymbolTableRecord
100
AcDbLinetypeTableRecord
  2
PHANTOM2
 70
0
  3
Phantom (.5x) ___ _ _ ___ _ _ ___ _ _ ___ _ _
 72
65
 73
6
 40
31.7500000000000036
 49
15.875
 74
0
 49
-3.1749999999999998
 74
0
 49
3.1749999999999998
 74
0
 49
-3.1749999999999998
 74
0
 49
3.1749999999999998
 74
0
 49
-3.1749999999999998
 74
0
  0
LTYPE
  5
54
100
AcDbSymbolTableRecord
100
AcDbLinetypeTableRecord
  2
DOTX2
 70
0
  3
Dot (2x) .  .  .  .  .  .  .  .  .  .  .  .  .  .
 72
65
 73
2
 40
12.6999999999999993
 49
0.1
 74
0
 49
-12.5999999999999996
 74
0
  0
LTYPE
  5
55
100
AcDbSymbolTableRecord
100
AcDbLinetypeTableRecord
  2
DASHDOT2
 70
0
  3
Dash dot (.5x) _._._._._._._._._._._._._._._.
 72
65
 73
4
 40
12.6999999999999993
 49
6.3499999999999996
 74
0
 49
-3.125
 74
0
 49
0.1
 74
0
 49
-3.125
 74
0
  0
LTYPE
  5
56
100
AcDbSymbolTableRecord
100
AcDbLinetypeTableRecord
  2
CENTER
 70
0
  3
Center ____ _ ____ _ ____ _ ____ _ ____ _ ____
 72
65
 73
4
 40
50.8000000000000043
 49
31.75
 74
0
 49
-6.3499999999999996
 74
0
 49
6.3499999999999996
 74
0
 49
-6.3499999999999996
 74
0
  0
LTYPE
  5
15
100
AcDbSymbolTableRecord
100
AcDbLinetypeTableRecord
  2
ByLayer
 70
0
  3

 72
65
 73
0
 40
0.0
  0
ENDTAB
  0
TABLE
  2
LAYER
  5
2
100
AcDbSymbolTable
 70
3
  0
LAYER
  5
10
100
AcDbSymbolTableRecord
100
AcDbLayerTableRecord
  2
0
 70
0
 62
7
420
16777215
  6
Continuous
370
-3
390
F
  0
LAYER
  5
57
100
AcDbSymbolTableRecord
100
AcDbLayerTableRecord
  2
Gasket
 70
0
 62
7
420
16777215
  6
Continuous
370
-3
390
F
  0
LAYER
  5
58
100
AcDbSymbolTableRecord
100
AcDbLayerTableRecord
  2
Dimensions
 70
0
 62
7
420
16777215
  6
Continuous
370
-3
390
F
  0
ENDTAB
  0
TABLE
  2
STYLE
  5
3
100
AcDbSymbolTable
 70
12
  0
STYLE
  5
59
100
AcDbSymbolTableRecord
100
AcDbTextStyleTableRecord
  2
Standard
 70
0
 40
0.0
 41
1.0
 50
0.0
 71
0
 42
2.5
  3

  4

1001
ACAD
1000
txt
1071
0
  0
STYLE
  5
5A
100
AcDbSymbolTableRecord
100
AcDbTextStyleTableRecord
  2
textstyle0
 70
0
 40
0.0
 41
1.0
 50
0.0
 71
0
 42
10.5
  3

  4

1001
ACAD
1000
Standard
1071
0
  0
STYLE
  5
5B
100
AcDbSymbolTableRecord
100
AcDbTextStyleTableRecord
  2
textstyle1
 70
0
 40
0.0
 41
1.0
 50
0.0
 71
0
 42
8.0
  3

  4

1001
ACAD
1000
Standard
1071
0
  0
STYLE
  5
5C
100
AcDbSymbolTableRecord
100
AcDbTextStyleTableRecord
  2
textstyle2
 70
0
 40
0.0
 41
1.0
 50
0.0
 71
0
 42
3.5
  3

  4

1001
ACAD
1000
seiso
1071
0
  0
STYLE
  5
5D
100
AcDbSymbolTableRecord
100
AcDbTextStyleTableRecord
  2
textstyle3
 70
0
 40
0.0
 41
1.0
 50
0.0
 71
0
 42
3.5
  3

  4

1001
ACAD
1000
semeci1
1071
0
  0
STYLE
  5
5E
100
AcDbSymbolTableRecord
100
AcDbTextStyleTableRecord
  2
textstyle4
 70
0
 40
0.0
 41
1.0
 50
0.0
 71
0
 42
3.5
  3

  4

1001
ACAD
1000
seiso
1071
0
  0
STYLE
  5
5F
100
AcDbSymbolTableRecord
100
AcDbTextStyleTableRecord
  2
textstyle5
 70
0
 40
0.0
 41
1.0
 50
0.0
 71
0
 42
3.5
  3

  4

1001
ACAD
1000
seiso
1071
0
  0
STYLE
  5
60
100
AcDbSymbolTableRecord
100
AcDbTextStyleTableRecord
  2
textstyle6
 70
0
 40
0.0
 41
1.0
 50
0.0
 71
0
 42
3.5
  3

  4

1001
ACAD
1000
seiso
1071
0
  0
STYLE
  5
61
100
AcDbSymbolTableRecord
100
AcDbTextStyleTableRecord
  2
textstyle7
 70
0
 40
0.0
 41
1.0
 50
0.0
 71
0
 42
3.5
  3

  4

1001
ACAD
1000
seiso
1071
0
  0
STYLE
  5
62
100
AcDbSymbolTableRecord
100
AcDbTextStyleTableRecord
  2
textstyle8
 70
0
 40
0.0
 41
1.0
 50
0.0
 71
0
 42
3.5
  3

  4

1001
ACAD
1000
semeci1
1071
0
  0
STYLE
  5
63
100
AcDbSymbolTableRecord
100
AcDbTextStyleTableRecord
  2
textstyle9
 70
0
 40
0.0
 41
1.0
 50
0.0
 71
0
 42
3.5
  3

  4

1001
ACAD
1000
seiso
1071
0
  0
STYLE
  5
64
100
AcDbSymbolTableRecord
100
AcDbTextStyleTableRecord
  2
textstyle10
 70
0
 40
0.0
 41
1.0
 50
0.0
 71
0
 42
3.5
  3

  4

1001
ACAD
1000
seiso
1071
0
  0
ENDTAB
  0
TABLE
  2
VIEW
  5
6
100
AcDbSymbolTable
 70
0
  0
ENDTAB
  0
TABLE
  2
UCS
  5
7
100
AcDbSymbolTable
 70
0
  0
ENDTAB
  0
TABLE
  2
APPID
  5
9
100
AcDbSymbolTable
 70
1
  0
APPID
  5
12
100
AcDbSymbolTableRecord
100
AcDbRegAppTableRecord
  2
ACAD
 70
0
  0
APPID
  5
65
100
AcDbSymbolTableRecord
100
AcDbRegAppTableRecord
  2
QCAD
 70
0
  0
ENDTAB
  0
TABLE
  2
DIMSTYLE
  5
A
100
AcDbSymbolTable
 70
1
100
AcDbDimStyleTable
 71
0
  0
DIMSTYLE
105
27
100
AcDbSymbolTableRecord
100
AcDbDimStyleTableRecord
  2
Standard
 41
2.5
 42
0.625
 43
3.75
 44
1.25
 70
0
 73
0
 74
0
 77
1
 78
8
140
2.5
141
2.5
143
0.03937007874016
147
0.625
171
3
172
1
271
2
272
2
274
3
278
44
283
0
284
8
340
59
  0
ENDTAB
  0
TABLE
  2
BLOCK_RECORD
  5
1
100
AcDbSymbolTable
 70
1
  0
BLOCK_RECORD
  5
1F
100
AcDbSymbolTableRecord
100
AcDbBlockTableRecord
  2
*Model_Space
340
22
  0
BLOCK_RECORD
  5
1B
100
AcDbSymbolTableRecord
100
AcDbBlockTableRecord
  2
*Paper_Space
340
1E
  0
BLOCK_RECORD
  5
23
100
AcDbSymbolTableRecord
100
AcDbBlockTableRecord
  2
*Paper_Space0
340
26
  0
BLOCK_RECORD
  5
66
100
AcDbSymbolTableRecord
100
AcDbBlockTableRecord
  2
SEANNOT_GROUP
340
0
  0
BLOCK_RECORD
  5
67
100
AcDbSymbolTableRecord
100
AcDbBlockTableRecord
  2
_Dot
340
0
  0
BLOCK_RECORD
  5
68
100
AcDbSymbolTableRecord
100
AcDbBlockTableRecord
  2
DMBLK2
340
0
  0
BLOCK_RECORD
  5
69
100
AcDbSymbolTableRecord
100
AcDbBlockTableRecord
  2
DMBLK5
340
0
  0
BLOCK_RECORD
  5
6A
100
AcDbSymbolTableRecord
100
AcDbBlockTableRecord
  2
DMBLK1
340
0
  0
BLOCK_RECORD
  5
6B
100
AcDbSymbolTableRecord
100
AcDbBlockTableRecord
  2
_Oblique
340
0
  0
BLOCK_RECORD
  5
6C
100
AcDbSymbolTableRecord
100
AcDbBlockTableRecord
  2
DMBLK3
340
0
  0
BLOCK_RECORD
  5
6D
100
AcDbSymbolTableRecord
100
AcDbBlockTableRecord
  2
DMBLK4
340
0
  0
BLOCK_RECORD
  5
6E
100
AcDbSymbolTableRecord
100
AcDbBlockTableRecord
  2
DMBLK6
340
0
  0
BLOCK_RECORD
  5
6F
100
AcDbSymbolTableRecord
100
AcDbBlockTableRecord
  2
_SE_FILLED
340
0
  0
ENDTAB
  0
ENDSEC
  0
SECTION
  2
BLOCKS
  0
BLOCK
  5
20
100
AcDbEntity
  8
0
100
AcDbBlockBegin
  2
*Model_Space
 70
0
 10
0.0
 20
0.0
 30
0.0
  3
*Model_Space
  1

  0
ENDBLK
  5
21
100
AcDbEntity
  8
0
100
AcDbBlockEnd
  0
BLOCK
  5
1C
100
AcDbEntity
 67
1
  8
0
100
AcDbBlockBegin
  2
*Paper_Space
 70
0
 10
0.0
 20
0.0
 30
0.0
  3
*Paper_Space
  1

  0
ENDBLK
  5
1D
100
AcDbEntity
 67
1
  8
0
100
AcDbBlockEnd
  0
BLOCK
  5
24
100
AcDbEntity
  8
0
100
AcDbBlockBegin
  2
*Paper_Space0
 70
0
 10
0.0
 20
0.0
 30
0.0
  3
*Paper_Space0
  1

  0
ENDBLK
  5
25
100
AcDbEntity
  8
0
100
AcDbBlockEnd
  0
BLOCK
  5
70
100
AcDbEntity
  8
0
100
AcDbBlockBegin
  2
SEANNOT_GROUP
 70
0
 10
0.0
 20
0.0
 30
0.0
  3
SEANNOT_GROUP
  1

  0
ENDBLK
  5
71
100
AcDbEntity
  8
0
100
AcDbBlockEnd
  0
BLOCK
  5
72
100
AcDbEntity
  8
0
100
AcDbBlockBegin
  2
_Dot
 70
0
 10
0.0
 20
0.0
 30
0.0
  3
_Dot
  1

  0
LWPOLYLINE
  5
73
100
AcDbEntity
  8
0
 62
0
370
-1
 48
1.0
  6
ByBlock
100
AcDbPolyline
 90
2
 70
1
 10
-0.25
 20
0.0
 42
1.0
 10
0.25
 20
0.0
 42
1.0
  0
LINE
  5
74
100
AcDbEntity
  8
0
 62
0
370
-2
 48
1.0
  6
ByBlock
100
AcDbLine
 10
-0.5
 20
0.0
 30
0.0
 11
-1.0
 21
0.0
 31
0.0
  0
ENDBLK
  5
75
100
AcDbEntity
  8
0
100
AcDbBlockEnd
  0
BLOCK
  5
76
100
AcDbEntity
  8
0
100
AcDbBlockBegin
  2
DMBLK2
 70
0
 10
0.0
 20
0.0
 30
0.0
  3
DMBLK2
  1

  0
HATCH
  5
77
100
AcDbEntity
  8
Dimensions
 62
136
420
19532
370
25
 48
1.0
  6
Continuous
100
AcDbHatch
 10
0.0
 20
0.0
 30
0.0
210
0.0
220
0.0
230
1.0
  2
SOLID
 70
1
 71
0
 91
1
 92
1
 93
3
 72
1
 10
375.1673521909593774
 20
176.1710008899216859
 11
374.5840188396205122
 21
179.6710009979551899
 72
1
 10
374.5840188396205122
 20
179.6710009979551899
 11
374.0006854882814764
 21
176.1710008899216859
 72
1
 10
374.0006854882814764
 20
176.1710008899216859
 11
375.1673521909593774
 21
176.1710008899216859
 97
0
 75
0
 76
1
 98
0
1001
ACAD
1010
0.0
1020
0.0
1030
0
  0
HATCH
  5
78
100
AcDbEntity
  8
Dimensions
 62
136
420
19532
370
25
 48
1.0
  6
Continuous
100
AcDbHatch
 10
0.0
 20
0.0
 30
0.0
210
0.0
220
0.0
230
1.0
  2
SOLID
 70
1
 71
0
 91
1
 92
1
 93
3
 72
1
 10
375.1673521909593774
 20
120.9456034297591032
 11
374.0006854882814764
 21
120.9456034297591032
 72
1
 10
374.0006854882814764
 20
120.9456034297591032
 11
374.5840188396205122
 21
117.4456033217256987
 72
1
 10
374.5840188396205122
 20
117.4456033217256987
 11
375.1673521909593774
 21
120.9456034297591032
 97
0
 75
0
 76
1
 98
0
1001
ACAD
1010
0.0
1020
0.0
1030
0
  0
LINE
  5
79
100
AcDbEntity
  8
Dimensions
 62
136
420
19532
370
25
 48
1.0
  6
Continuous
100
AcDbLine
 10
351.9616943132999722
 20
179.6710009980000109
 30
0.0
 11
376.334018893599989
 21
179.6710009980000109
 31
0.0
  0
LINE
  5
7A
100
AcDbEntity
  8
Dimensions
 62
136
420
19532
370
25
 48
1.0
  6
Continuous
100
AcDbLine
 10
351.9616943132999722
 20
117.4456042534999938
 30
0.0
 11
376.334018893599989
 21
117.4456042534999938
 31
0.0
  0
LINE
  5
7B
100
AcDbEntity
  8
Dimensions
 62
136
420
19532
370
25
 48
1.0
  6
Continuous
100
AcDbLine
 10
374.5840188395999917
 20
179.6710009980000109
 30
0.0
 11
374.5840188395999917
 21
117.4456033217000055
 31
0.0
  0
TEXT
  5
7C
100
AcDbEntity
  8
Dimensions
 62
136
420
19532
370
25
 48
1.0
  6
Continuous
100
AcDbText
 10
373.7090188395999917
 20
144.1037567052999862
 30
0.0
 40
3.5
  1
62,23
 50
90.0
 41
1.0
  7
textstyle2
 71
0
 72
0
 11
370.2090188395999917
 21
144.1037567052999862
 31
0.0
100
AcDbText
 73
3
  0
ENDBLK
  5
7D
100
AcDbEntity
  8
0
100
AcDbBlockEnd
  0
BLOCK
  5
7E
100
AcDbEntity
  8
0
100
AcDbBlockBegin
  2
DMBLK5
 70
0
 10
0.0
 20
0.0
 30
0.0
  3
DMBLK5
  1

  0
LINE
  5
7F
100
AcDbEntity
  8
Dimensions
 62
136
420
19532
370
25
 48
1.0
  6
Continuous
100
AcDbLine
 10
232.9616943133000007
 20
148.5583026257000085
 30
0.0
 11
316.1539560245000189
 21
268.272538002899978
 31
0.0
  0
HATCH
  5
80
100
AcDbEntity
  8
Dimensions
 62
136
420
19532
370
25
 48
1.0
  6
Continuous
100
AcDbHatch
 10
0.0
 20
0.0
 30
0.0
210
0.0
220
0.0
230
1.0
  2
SOLID
 70
1
 71
0
 91
1
 92
1
 93
3
 72
1
 10
304.6713243732975798
 20
252.7711581752953975
 11
303.1530346569775247
 21
249.5641229568522022
 72
1
 10
303.1530346569775247
 20
249.5641229568520885
 11
305.6293741892077946
 21
252.105386633870296
 72
1
 10
305.6293741892077946
 20
252.105386633870296
 11
304.6713243732975798
 21
252.7711581752953975
 97
0
 75
0
 76
1
 98
0
1001
ACAD
1010
0.0
1020
0.0
1030
0
  0
TEXT
  5
81
100
AcDbEntity
  8
Dimensions
 62
136
420
19532
370
25
 48
1.0
  6
Continuous
100
AcDbText
 10
309.2709763298000212
 20
259.9011918009999818
 30
0.0
 40
3.5
  1
R
 50
55.2036466512999908
 41
1.0
  7
textstyle5
 71
0
 72
0
 11
306.3968269708000207
 21
261.8985063636999939
 31
0.0
100
AcDbText
 73
3
  0
TEXT
  5
82
100
AcDbEntity
  8
Dimensions
 62
136
420
19532
370
25
 48
1.0
  6
Continuous
100
AcDbText
 10
311.6495963997999752
 20
263.3240424013000052
 30
0.0
 40
3.5
  1
123
 50
55.2036466512999908
 41
1.0
  7
textstyle6
 71
0
 72
0
 11
308.7754470407999747
 21
265.3213569638999729
 31
0.0
100
AcDbText
 73
3
  0
ENDBLK
  5
83
100
AcDbEntity
  8
0
100
AcDbBlockEnd
  0
BLOCK
  5
84
100
AcDbEntity
  8
0
100
AcDbBlockBegin
  2
DMBLK1
 70
0
 10
0.0
 20
0.0
 30
0.0
  3
DMBLK1
  1

  0
LINE
  5
85
100
AcDbEntity
  8
Dimensions
 62
136
420
19532
370
25
 48
1.0
  6
Continuous
100
AcDbLine
 10
148.3591105172000084
 20
206.4258480638000037
 30
0.0
 11
317.5642766335000147
 21
90.6907581971999974
 31
0.0
  0
HATCH
  5
86
100
AcDbEntity
  8
Dimensions
 62
136
420
19532
370
25
 48
1.0
  6
Continuous
100
AcDbHatch
 10
0.0
 20
0.0
 30
0.0
210
0.0
220
0.0
230
1.0
  2
SOLID
 70
1
 71
0
 91
1
 92
1
 93
3
 72
1
 10
151.5773068259144054
 20
204.9313611706720906
 11
148.3591105172282028
 21
206.4258480638152093
 72
1
 10
148.3591105172282028
 20
206.4258480638152093
 11
150.918651816857988
 21
203.9684049026195112
 72
1
 10
150.918651816857988
 20
203.9684049026195112
 11
151.5773068259144054
 21
204.9313611706720906
 97
0
 75
0
 76
1
 98
0
1001
ACAD
1010
0.0
1020
0.0
1030
0
  0
HATCH
  5
87
100
AcDbEntity
  8
Dimensions
 62
136
420
19532
370
25
 48
1.0
  6
Continuous
100
AcDbHatch
 10
0.0
 20
0.0
 30
0.0
210
0.0
220
0.0
230
1.0
  2
SOLID
 70
1
 71
0
 91
1
 92
1
 93
3
 72
1
 10
315.0047368097629032
 20
93.1482003488745534
 11
314.3460818007063722
 21
92.1852440808219029
 72
1
 10
314.3460818007063722
 20
92.1852440808219029
 11
317.5642781093926033
 21
90.6907571876787841
 72
1
 10
317.5642781093927169
 20
90.6907571876787841
 11
315.0047368097629032
 21
93.1482003488745534
 97
0
 75
0
 76
1
 98
0
1001
ACAD
1010
0.0
1020
0.0
1030
0
  0
TEXT
  5
88
100
AcDbEntity
  8
Dimensions
 62
136
420
19532
370
25
 48
1.0
  6
Continuous
100
AcDbText
 10
299.0512516232000166
 20
104.4136347795000006
 30
0.0
 40
3.5
  1
O
 50
325.6281590020000181
 41
1.0
  7
textstyle3
 71
0
 72
0
 11
301.0272165892999965
 21
107.3025034945000016
 31
0.0
100
AcDbText
 73
3
  0
TEXT
  5
89
100
AcDbEntity
  8
Dimensions
 62
136
420
19532
370
25
 48
1.0
  6
Continuous
100
AcDbText
 10
304.0014353950999748
 20
101.0277454663000043
 30
0.0
 40
3.5
  1
205
 50
325.6281590020000181
 41
1.0
  7
textstyle4
 71
0
 72
0
 11
305.9774003612000115
 21
103.9166141813000053
 31
0.0
100
AcDbText
 73
3
  0
ENDBLK
  5
8A
100
AcDbEntity
  8
0
100
AcDbBlockEnd
  0
BLOCK
  5
8B
100
AcDbEntity
  8
0
100
AcDbBlockBegin
  2
_Oblique
 70
0
 10
0.0
 20
0.0
 30
0.0
  3
_Oblique
  1

  0
LINE
  5
8C
100
AcDbEntity
  8
0
 62
0
370
-2
 48
1.0
  6
ByBlock
100
AcDbLine
 10
-0.5
 20
-0.5
 30
0.0
 11
0.5
 21
0.5
 31
0.0
  0
ENDBLK
  5
8D
100
AcDbEntity
  8
0
100
AcDbBlockEnd
  0
BLOCK
  5
8E
100
AcDbEntity
  8
0
100
AcDbBlockBegin
  2
DMBLK3
 70
0
 10
0.0
 20
0.0
 30
0.0
  3
DMBLK3
  1

  0
LINE
  5
8F
100
AcDbEntity
  8
Dimensions
 62
136
420
19532
370
25
 48
1.0
  6
Continuous
100
AcDbLine
 10
304.4555414065999912
 20
236.3149010848999865
 30
0.0
 11
315.6634239145000151
 21
224.8963475772999914
 31
0.0
  0
LINE
  5
90
100
AcDbEntity
  8
Dimensions
 62
136
420
19532
370
25
 48
1.0
  6
Continuous
100
AcDbLine
 10
315.6634241858999985
 20
224.896347300799988
 30
0.0
 11
326.2369233114000053
 21
214.1241014782000036
 31
0.0
  0
HATCH
  5
91
100
AcDbEntity
  8
Dimensions
 62
136
420
19532
370
25
 48
1.0
  6
Continuous
100
AcDbHatch
 10
0.0
 20
0.0
 30
0.0
210
0.0
220
0.0
230
1.0
  2
SOLID
 70
1
 71
0
 91
1
 92
1
 93
3
 72
1
 10
307.323567254406214
 20
234.2257131346790118
 11
306.490964359863824
 21
233.4084716678306108
 72
1
 10
306.490964359863824
 20
233.4084716678306108
 11
309.3589902076802218
 21
231.319283717627286
 72
1
 10
309.3589902076802787
 20
231.319283717627286
 11
307.3235672544063277
 21
234.2257131346790118
 97
0
 75
0
 76
1
 98
0
1001
ACAD
1010
0.0
1020
0.0
1030
0
  0
HATCH
  5
92
100
AcDbEntity
  8
Dimensions
 62
136
420
19532
370
25
 48
1.0
  6
Continuous
100
AcDbHatch
 10
0.0
 20
0.0
 30
0.0
210
0.0
220
0.0
230
1.0
  2
SOLID
 70
1
 71
0
 91
1
 92
1
 93
3
 72
1
 10
318.5314500337303798
 20
222.8071593506365957
 11
315.6634241859139252
 21
224.8963473008398921
 72
1
 10
315.6634241859139252
 20
224.8963473008398921
 11
317.6988471391878761
 21
221.9899178837881948
 72
1
 10
317.6988471391878761
 20
221.9899178837881948
 11
318.5314500337303798
 21
222.8071593506367094
 97
0
 75
0
 76
1
 98
0
1001
ACAD
1010
0.0
1020
0.0
1030
0
  0
TEXT
  5
93
100
AcDbEntity
  8
Dimensions
 62
136
420
19532
370
25
 48
1.0
  6
Continuous
100
AcDbText
 10
320.2976843112999745
 20
221.4240993242000002
 30
0.0
 40
3.5
  1
O
 50
314.4665438980999852
 41
1.0
  7
textstyle8
 71
0
 72
0
 11
322.7954929178999919
 21
223.8758236490999991
 31
0.0
100
AcDbText
 73
3
  0
TEXT
  5
94
100
AcDbEntity
  8
Dimensions
 62
136
420
19532
370
25
 48
1.0
  6
Continuous
100
AcDbText
 10
324.4988049448999732
 20
217.144011563499987
 30
0.0
 40
3.5
  1
9
 50
314.4665438980999852
 41
1.0
  7
textstyle7
 71
0
 72
0
 11
326.996613551400003
 21
219.5957358883999859
 31
0.0
100
AcDbText
 73
3
  0
ENDBLK
  5
95
100
AcDbEntity
  8
0
100
AcDbBlockEnd
  0
BLOCK
  5
96
100
AcDbEntity
  8
0
100
AcDbBlockBegin
  2
DMBLK4
 70
0
 10
0.0
 20
0.0
 30
0.0
  3
DMBLK4
  1

  0
HATCH
  5
97
100
AcDbEntity
  8
Dimensions
 62
136
420
19532
370
25
 48
1.0
  6
Continuous
100
AcDbHatch
 10
0.0
 20
0.0
 30
0.0
210
0.0
220
0.0
230
1.0
  2
SOLID
 70
1
 71
0
 91
1
 92
1
 93
3
 72
1
 10
263.9713128529510868
 20
277.7800246812914793
 11
267.5072168545685827
 21
277.4839479237385262
 72
1
 10
267.5072168545686964
 20
277.4839479237385262
 11
264.2584676933259971
 21
278.9108002084348072
 72
1
 10
264.2584676933259971
 20
278.9108002084349209
 11
263.9713128529510868
 21
277.7800246812914793
 97
0
 75
0
 76
1
 98
0
1001
ACAD
1010
0.0
1020
0.0
1030
0
  0
HATCH
  5
98
100
AcDbEntity
  8
Dimensions
 62
136
420
19532
370
25
 48
1.0
  6
Continuous
100
AcDbHatch
 10
0.0
 20
0.0
 30
0.0
210
0.0
220
0.0
230
1.0
  2
SOLID
 70
1
 71
0
 91
1
 92
1
 93
3
 72
1
 10
236.4690415771171104
 20
282.5693475631542242
 11
232.961694313310403
 21
282.0319522467568163
 72
1
 10
232.961694313310403
 20
282.0319522467568163
 11
236.4537456114186114
 21
281.4027811361684144
 72
1
 10
236.4537456114186114
 20
281.4027811361684144
 11
236.4690415771171104
 21
282.5693475631542242
 97
0
 75
0
 76
1
 98
0
1001
ACAD
1010
0.0
1020
0.0
1030
0
  0
LINE
  5
99
100
AcDbEntity
  8
Dimensions
 62
136
420
19532
370
25
 48
1.0
  6
Continuous
100
AcDbLine
 10
262.0788361159999909
 20
257.2249552046000076
 30
0.0
 11
267.9601520656000275
 21
279.1743251437000026
 31
0.0
  0
LINE
  5
9A
100
AcDbEntity
  8
Dimensions
 62
136
420
19532
370
25
 48
1.0
  6
Continuous
100
AcDbLine
 10
232.9616943133000007
 20
148.5583026257000085
 30
0.0
 11
232.9616943133000007
 21
283.7819595185000026
 31
0.0
  0
ARC
  5
9B
100
AcDbEntity
  8
Dimensions
 62
136
420
19532
370
25
 48
1.0
  6
Continuous
100
AcDbCircle
 10
232.9616943133000007
 20
148.5583026257000085
 30
0.0
 40
133.4736496210090877
100
AcDbArc
 50
75.0
 51
90.0000004173999884
  0
TEXT
  5
9C
100
AcDbEntity
  8
Dimensions
 62
136
420
19532
370
25
 48
1.0
  6
Continuous
100
AcDbText
 10
248.0923315475000095
 20
282.0742552663999732
 30
0.0
 40
3.5
  1
15\U+00b0
 50
352.5
 41
1.0
  7
textstyle9
 71
0
 72
0
 11
248.5491732202999913
 21
285.544312281200007
 31
0.0
100
AcDbText
 73
3
  0
ENDBLK
  5
9D
100
AcDbEntity
  8
0
100
AcDbBlockEnd
  0
BLOCK
  5
9E
100
AcDbEntity
  8
0
100
AcDbBlockBegin
  2
DMBLK6
 70
0
 10
0.0
 20
0.0
 30
0.0
  3
DMBLK6
  1

  0
HATCH
  5
9F
100
AcDbEntity
  8
Dimensions
 62
136
420
19532
370
25
 48
1.0
  6
Continuous
100
AcDbHatch
 10
0.0
 20
0.0
 30
0.0
210
0.0
220
0.0
230
1.0
  2
SOLID
 70
1
 71
0
 91
1
 92
1
 93
3
 72
1
 10
117.4616944213437932
 20
12.6877687082724808
 11
117.4616944213437932
 21
13.8544354109502805
 72
1
 10
117.4616944213437932
 20
13.8544354109502805
 11
113.961694313310403
 21
13.2711020596113798
 72
1
 10
113.961694313310403
 20
13.2711020596113798
 11
117.4616944213437932
 21
12.6877687082724808
 97
0
 75
0
 76
1
 98
0
1001
ACAD
1010
0.0
1020
0.0
1030
0
  0
HATCH
  5
A0
100
AcDbEntity
  8
Dimensions
 62
136
420
19532
370
25
 48
1.0
  6
Continuous
100
AcDbHatch
 10
0.0
 20
0.0
 30
0.0
210
0.0
220
0.0
230
1.0
  2
SOLID
 70
1
 71
0
 91
1
 92
1
 93
3
 72
1
 10
348.4616996889042753
 20
12.6877687082724808
 11
351.9616997969376939
 21
13.2711020596113798
 72
1
 10
351.9616997969376939
 20
13.2711020596113798
 11
348.4616996889042753
 21
13.8544354109502805
 72
1
 10
348.4616996889042753
 20
13.8544354109502805
 11
348.4616996889042753
 21
12.6877687082724808
 97
0
 75
0
 76
1
 98
0
1001
ACAD
1010
0.0
1020
0.0
1030
0
  0
LINE
  5
A1
100
AcDbEntity
  8
Dimensions
 62
136
420
19532
370
25
 48
1.0
  6
Continuous
100
AcDbLine
 10
113.9616943133000007
 20
117.4456042534999938
 30
0.0
 11
113.9616943133000007
 21
11.5211020055999995
 31
0.0
  0
LINE
  5
A2
100
AcDbEntity
  8
Dimensions
 62
136
420
19532
370
25
 48
1.0
  6
Continuous
100
AcDbLine
 10
351.9616943132999722
 20
117.4456042534999938
 30
0.0
 11
351.9616943132999722
 21
11.5211020055999995
 31
0.0
  0
LINE
  5
A3
100
AcDbEntity
  8
Dimensions
 62
136
420
19532
370
25
 48
1.0
  6
Continuous
100
AcDbLine
 10
113.9616943133000007
 20
13.2711020596000004
 30
0.0
 11
351.9616997969000067
 21
13.2711020596000004
 31
0.0
  0
TEXT
  5
A4
100
AcDbEntity
  8
Dimensions
 62
136
420
19532
370
25
 48
1.0
  6
Continuous
100
AcDbText
 10
229.8594243279000011
 20
14.1461020596000004
 30
0.0
 40
3.5
  1
238
 50
0.0
 41
1.0
  7
textstyle10
 71
0
 72
0
 11
229.8594243279000011
 21
17.6461020596000004
 31
0.0
100
AcDbText
 73
3
  0
ENDBLK
  5
A5
100
AcDbEntity
  8
0
100
AcDbBlockEnd
  0
BLOCK
  5
A6
100
AcDbEntity
  8
0
100
AcDbBlockBegin
  2
_SE_FILLED
 70
0
 10
0.0
 20
0.0
 30
0.0
  3
_SE_FILLED
  1

  0
SOLID
  5
A7
100
AcDbEntity
  8
0
 62
0
370
-1
 48
1.0
  6
ByLayer
100
AcDbTrace
 10
0.0
 20
0.0
 30
0.0
 11
-1.0
 21
-0.1665
 31
0.0
 12
-1.0
 22
0.1665
 32
0.0
 13
0.0
 23
0.0
 33
0.0
 39
0.0
  0
LINE
  5
A8
100
AcDbEntity
  8
0
 62
0
370
-1
 48
1.0
  6
ByLayer
100
AcDbLine
 10
0.0
 20
0.0
 30
0.0
 11
-1.0
 21
0.0
 31
0.0
  0
ENDBLK
  5
A9
100
AcDbEntity
  8
0
100
AcDbBlockEnd
  0
ENDSEC
  0
SECTION
  2
ENTITIES
  0
CIRCLE
  5
AA
100
AcDbEntity
  8
Gasket
 62
7
420
16777215
370
-1
 48
1.0
  6
Continuous
100
AcDbCircle
 10
48.5781793010348508
 20
69.6659056915195833
 30
0.0
 40
4.5000000000000009
  0
CIRCLE
  5
AB
100
AcDbEntity
  8
Gasket
 62
7
420
16777215
370
-1
 48
1.0
  6
Continuous
100
AcDbCircle
 10
48.5781793010348508
 20
69.6659056915195549
 30
0.0
 40
4.5000000000000009
  0
CIRCLE
  5
AC
100
AcDbEntity
  8
Gasket
 62
7
420
16777215
370
-1
 48
1.0
  6
Continuous
100
AcDbCircle
 10
48.5781793010348508
 20
69.6659056915196118
 30
0.0
 40
4.5000000000000009
  0
CIRCLE
  5
AD
100
AcDbEntity
  8
Gasket
 62
7
420
16777215
370
-1
 48
1.0
  6
Continuous
100
AcDbCircle
 10
19.9999999999927809
 20
20.1670471542195173
 30
0.0
 40
4.5000000000000009
  0
CIRCLE
  5
AE
100
AcDbEntity
  8
Gasket
 62
7
420
16777215
370
-1
 48
1.0
  6
Continuous
100
AcDbCircle
 10
19.9999999999928093
 20
20.1670471542195457
 30
0.0
 40
4.5000000000000009
  0
CIRCLE
  5
AF
100
AcDbEntity
  8
Gasket
 62
7
420
16777215
370
-1
 48
1.0
  6
Continuous
100
AcDbCircle
 10
77.1563586021478898
 20
20.1670471542605014
 30
0.0
 40
4.5000000000000009
  0
CIRCLE
  5
B0
100
AcDbEntity
  8
Gasket
 62
7
420
16777215
370
-1
 48
1.0
  6
Continuous
100
AcDbCircle
 10
77.1563586021479466
 20
20.167047154260473
 30
0.0
 40
4.5000000000000009
  0
INSERT
  5
B1
100
AcDbEntity
  8
Dimensions
 62
256
370
-1
 48
1.0
  6
ByLayer
100
AcDbBlockReference
  2
SEANNOT_GROUP
 10
0.0
 20
0.0
 30
0.0
  0
MTEXT
  5
B2
100
AcDbEntity
  8
Dimensions
 62
256
370
-1
 48
1.0
  6
ByLayer
100
AcDbMText
 10
4.3354615973183854
 20
113.2668245269339593
 30
0.0
 40
10.5
 41
136.7805413483000052
 71
1
 72
1
  1
\f24 Edge ISO|b0|i0|c0|p0;\C7;GAGGIA Boiler Element Gasket
  7
textstyle0
 50
0.0
 73
1
 44
1.0
  0
MTEXT
  5
B3
100
AcDbEntity
  8
Dimensions
 62
256
370
-1
 48
1.0
  6
ByLayer
100
AcDbMText
 10
4.1265782336214851
 20
97.7754562689173667
 30
0.0
 40
8.0
 41
136.7805413483000052
 71
1
 72
1
  1
\f24 Edge ISO|b0|i0|c0|p0;\C7;Suggested material: PTFE sheet 3\H9;mm
  7
textstyle1
 50
0.0
 73
1
 44
1.0
  0
CIRCLE
  5
B4
100
AcDbEntity
  8
Gasket
 62
256
370
-1
 48
1.0
  6
ByLayer
100
AcDbCircle
 10
48.5781793010584408
 20
36.6666666666666572
 30
0.0
 40
21.0
  0
ARC
  5
B5
100
AcDbEntity
  8
Gasket
 62
256
370
-1
 48
1.0
  6
ByLayer
100
AcDbCircle
 10
48.5781793010348508
 20
69.6659056915196402
 30
0.0
 40
10.1670471542197998
100
AcDbArc
 50
29.9999999999998792
 51
149.999999999999801
  0
ARC
  5
B6
100
AcDbEntity
  8
Gasket
 62
256
370
-1
 48
1.0
  6
ByLayer
100
AcDbCircle
 10
19.9999999999927525
 20
20.1670471542198015
 30
0.0
 40
10.1670471542197998
100
AcDbArc
 50
149.9999999999998863
 51
269.9999999999997726
  0
ARC
  5
B7
100
AcDbEntity
  8
Gasket
 62
256
370
-1
 48
1.0
  6
ByLayer
100
AcDbCircle
 10
77.1563586021476624
 20
20.1670471542606151
 30
0.0
 40
10.1670471542197998
100
AcDbArc
 50
269.9999999999998863
 51
29.999999999999762
  0
LINE
  5
B8
100
AcDbEntity
  8
Gasket
 62
256
370
-1
 48
1.0
  6
ByLayer
100
AcDbLine
 10
57.383100418063492
 20
74.7494292686295125
 30
0.0
 11
85.9612797191763036
 21
25.2505707313704875
 31
0.0
  0
LINE
  5
B9
100
AcDbEntity
  8
Gasket
 62
256
370
-1
 48
1.0
  6
ByLayer
100
AcDbLine
 10
77.1563586021476624
 20
10.0000000000408136
 30
0.0
 11
19.999999999992724
 21
10.0
 31
0.0
  0
LINE
  5
BA
100
AcDbEntity
  8
Gasket
 62
256
370
-1
 48
1.0
  6
ByLayer
100
AcDbLine
 10
11.1950788829641397
 20
25.2505707313297307
 30
0.0
 11
39.773258184006238
 21
74.7494292686295694
 31
0.0
  0
DIMENSION
  5
BB
100
AcDbEntity
  8
Dimensions
 62
5
420
255
370
-1
 48
1.0
  6
ByLayer
100
AcDbDimension
 10
65.567020423063596
 20
49.0108668161808652
 30
0.0
 11
47.4760185734232465
 21
38.1835274811314065
 31
0.0
 70
3
 71
8
 72
2
 74
0
 75
0
 41
1.0
 42
0.0
  1

  3
Standard
100
AcDbDiametricDimension
 15
31.5893381790532821
 25
24.3224665171524492
 35
0.0
 40
0.0
1001
ACAD
1000
DSTYLE
1002
{
1070
144
1040
1.0
1070
40
1040
1.0
1002
}
  0
DIMENSION
  5
BC
100
AcDbEntity
  8
Dimensions
 62
5
420
255
370
-1
 48
1.0
  6
ByLayer
100
AcDbDimension
 10
53.0781793010348508
 20
69.6659056915195549
 30
0.0
 11
48.5781793010348508
 21
71.5409056915195549
 31
0.0
 70
3
 71
8
 72
2
 74
0
 75
0
 41
1.0
 42
0.0
  1

  3
Standard
100
AcDbDiametricDimension
 15
44.0781793010348508
 25
69.6659056915195549
 35
0.0
 40
0.0
1001
ACAD
1000
DSTYLE
1002
{
1070
144
1040
1.0
1070
40
1040
1.0
1002
}
  0
DIMENSION
  5
BD
100
AcDbEntity
  8
Dimensions
 62
5
420
255
370
-1
 48
1.0
  6
ByLayer
100
AcDbDimension
 10
45.0667828800939247
 20
30.5847496600305675
 30
0.0
 11
60.2933725306375194
 21
23.9587375359239658
 31
0.0
 70
1
 71
8
 72
2
 74
0
 75
0
 41
1.0
 42
0.0
  1

  3
Standard
100
AcDbAlignedDimension
 13
48.5781793010584408
 23
36.6666666666666572
 33
0.0
 14
77.1563586021479466
 24
20.167047154260473
 34
0.0
1001
ACAD
1000
DSTYLE
1002
{
1070
144
1040
1.0
1070
40
1040
1.0
1002
}
  0
DIMENSION
  5
BE
100
AcDbEntity
  8
Dimensions
 62
5
420
255
370
-1
 48
1.0
  6
ByLayer
100
AcDbDimension
 10
94.2581911564500388
 20
10.0000000000408136
 30
0.0
 11
92.3831911564500388
 21
44.9164764228901277
 31
0.0
 70
0
 71
8
 72
2
 74
0
 75
0
 41
1.0
 42
0.0
  1

  3
Standard
100
AcDbAlignedDimension
 13
77.1563586021549241
 23
10.0000000000408136
 33
0.0
 14
48.5781793010348792
 24
79.8329528457394417
 34
0.0
 50
90.0
100
AcDbRotatedDimension
1001
ACAD
1000
DSTYLE
1002
{
1070
144
1040
1.0
1070
40
1040
1.0
1002
}
  0
ENDSEC
  0
SECTION
  2
OBJECTS
  0
DICTIONARY
  5
C
100
AcDbDictionary
280
0
281
1
  3
ACAD_GROUP
350
D
  3
ACAD_LAYOUT
350
1A
  3
ACAD_MLINESTYLE
350
17
  3
ACAD_PLOTSETTINGS
350
19
  3
ACAD_PLOTSTYLENAME
350
E
  3
AcDbVariableDictionary
350
BF
  3
QCAD_OBJECTS
350
C0
  0
DICTIONARY
  5
D
100
AcDbDictionary
280
0
281
1
  0
ACDBDICTIONARYWDFLT
  5
E
100
AcDbDictionary
281
1
  3
Normal
350
F
100
AcDbDictionaryWithDefault
340
F
  0
ACDBPLACEHOLDER
  5
F
  0
DICTIONARY
  5
17
100
AcDbDictionary
280
0
281
1
  3
Standard
350
18
  0
MLINESTYLE
  5
18
100
AcDbMlineStyle
  2
STANDARD
 70
0
  3

 62
256
 51
90.0
 52
90.0
 71
2
 49
0.5
 62
256
  6
BYLAYER
 49
-0.5
 62
256
  6
BYLAYER
  0
DICTIONARY
  5
19
100
AcDbDictionary
280
0
281
1
  0
DICTIONARY
  5
1A
100
AcDbDictionary
281
1
  3
Layout1
350
1E
  3
Layout2
350
26
  3
Model
350
22
  0
LAYOUT
  5
1E
100
AcDbPlotSettings
  1

  2
none_device
  4

  6

 40
0.0
 41
0.0
 42
0.0
 43
0.0
 44
0.0
 45
0.0
 46
0.0
 47
0.0
 48
0.0
 49
0.0
140
0.0
141
0.0
142
1.0
143
1.0
 70
688
 72
0
 73
0
 74
5
  7

 75
16
147
1.0
148
0.0
149
0.0
100
AcDbLayout
  1
Layout1
 70
1
 71
1
 10
0.0
 20
0.0
 11
420.0
 21
297.0
 12
0.0
 22
0.0
 32
0.0
 14
100000000000000000000.0
 24
100000000000000000000.0
 34
100000000000000000000.0
 15
-100000000000000000000.0
 25
-100000000000000000000.0
 35
-100000000000000000000.0
146
0.0
 13
0.0
 23
0.0
 33
0.0
 16
1.0
 26
0.0
 36
0.0
 17
0.0
 27
1.0
 37
0.0
 76
0
330
1B
  0
LAYOUT
  5
22
100
AcDbPlotSettings
  1

  2
none_device
  4

  6

 40
0.0
 41
0.0
 42
0.0
 43
0.0
 44
0.0
 45
0.0
 46
0.0
 47
0.0
 48
0.0
 49
0.0
140
0.0
141
0.0
142
1.0
143
1.0
 70
1712
 72
0
 73
0
 74
0
  7

 75
0
147
1.0
148
0.0
149
0.0
100
AcDbLayout
  1
Model
 70
1
 71
0
 10
0.0
 20
0.0
 11
12.0
 21
9.0
 12
0.0
 22
0.0
 32
0.0
 14
0.0
 24
0.0
 34
0.0
 15
0.0
 25
0.0
 35
0.0
146
0.0
 13
0.0
 23
0.0
 33
0.0
 16
1.0
 26
0.0
 36
0.0
 17
0.0
 27
1.0
 37
0.0
 76
0
330
1F
  0
LAYOUT
  5
26
100
AcDbPlotSettings
  1

  2
none_device
  4

  6

 40
0.0
 41
0.0
 42
0.0
 43
0.0
 44
0.0
 45
0.0
 46
0.0
 47
0.0
 48
0.0
 49
0.0
140
0.0
141
0.0
142
1.0
143
1.0
 70
688
 72
0
 73
0
 74
5
  7

 75
16
147
1.0
148
0.0
149
0.0
100
AcDbLayout
  1
Layout2
 70
1
 71
2
 10
0.0
 20
0.0
 11
12.0
 21
9.0
 12
0.0
 22
0.0
 32
0.0
 14
0.0
 24
0.0
 34
0.0
 15
0.0
 25
0.0
 35
0.0
146
0.0
 13
0.0
 23
0.0
 33
0.0
 16
1.0
 26
0.0
 36
0.0
 17
0.0
 27
1.0
 37
0.0
 76
0
330
23
  0
DICTIONARY
  5
BF
100
AcDbDictionary
281
1
  3
DIMASSOC
350
C2
  3
HIDETEXT
350
C1
  0
DICTIONARYVAR
  5
C1
100
DictionaryVariables
280
0
  1
2
  0
DICTIONARYVAR
  5
C2
100
DictionaryVariables
280
0
  1
1
  0
DICTIONARY
  5
C0
100
AcDbDictionary
281
1
  3
ColorSettings/BackgroundColor
350
C3
  3
ColorSettings/ColorMode
350
C4
  3
Grid/DisplayGrid00
350
C5
  3
Grid/DisplayGrid01
350
C6
  3
Grid/DisplayGrid02
350
C7
  3
Grid/DisplayGrid03
350
C8
  3
Grid/GridSpacingX00
350
C9
  3
Grid/GridSpacingX01
350
CA
  3
Grid/GridSpacingX02
350
CB
  3
Grid/GridSpacingX03
350
CC
  3
Grid/GridSpacingY00
350
CD
  3
Grid/GridSpacingY01
350
CE
  3
Grid/GridSpacingY02
350
CF
  3
Grid/GridSpacingY03
350
D0
  3
Grid/IsometricGrid00
350
D1
  3
Grid/IsometricGrid01
350
D2
  3
Grid/IsometricGrid02
350
D3
  3
Grid/IsometricGrid03
350
D4
  3
Grid/IsometricProjection00
350
D5
  3
Grid/IsometricProjection01
350
D6
  3
Grid/IsometricProjection02
350
D7
  3
Grid/IsometricProjection03
350
D8
  3
Grid/MetaGridSpacingX00
350
D9
  3
Grid/MetaGridSpacingX01
350
DA
  3
Grid/MetaGridSpacingX02
350
DB
  3
Grid/MetaGridSpacingX03
350
DC
  3
Grid/MetaGridSpacingY00
350
DD
  3
Grid/MetaGridSpacingY01
350
DE
  3
Grid/MetaGridSpacingY02
350
DF
  3
Grid/MetaGridSpacingY03
350
E0
  3
MultiPageSettings/Columns
350
E1
  3
MultiPageSettings/GlueMarginsBottom
350
E2
  3
MultiPageSettings/GlueMarginsLeft
350
E3
  3
MultiPageSettings/GlueMarginsRight
350
E4
  3
MultiPageSettings/GlueMarginsTop
350
E5
  3
MultiPageSettings/PrintCropMarks
350
E6
  3
MultiPageSettings/Rows
350
E7
  3
PageSettings/OffsetX
350
E8
  3
PageSettings/OffsetY
350
E9
  3
PageSettings/PageOrientation
350
EA
  3
PageSettings/PaperHeight
350
EB
  3
PageSettings/PaperWidth
350
EC
  3
PageSettings/Scale
350
ED
  3
PageSettings/ShowPaperBorders
350
EE
  3
PageTagSettings/EnablePageTags
350
EF
  3
PageTagSettings/TagAlignment
350
F0
  3
PageTagSettings/TagFont
350
F1
  3
PageTagSettings/TagPosition
350
F2
  3
QCADVersion
350
F3
  3
UnitSettings/PaperUnit
350
F4
  3
ViewportCenter
350
F5
  3
ViewportHeight
350
F6
  3
ViewportWidth
350
F7
  0
XRECORD
  5
C3
330
C0
100
AcDbXrecord
280
1
1000
White
  0
XRECORD
  5
C4
330
C0
100
AcDbXrecord
280
1
1000
FullColor
  0
XRECORD
  5
C5
330
C0
100
AcDbXrecord
280
1
290
1
  0
XRECORD
  5
C6
330
C0
100
AcDbXrecord
280
1
290
1
  0
XRECORD
  5
C7
330
C0
100
AcDbXrecord
280
1
290
1
  0
XRECORD
  5
C8
330
C0
100
AcDbXrecord
280
1
290
1
  0
XRECORD
  5
C9
330
C0
100
AcDbXrecord
280
1
1000
auto
  0
XRECORD
  5
CA
330
C0
100
AcDbXrecord
280
1
1000
auto
  0
XRECORD
  5
CB
330
C0
100
AcDbXrecord
280
1
1000
auto
  0
XRECORD
  5
CC
330
C0
100
AcDbXrecord
280
1
1000
auto
  0
XRECORD
  5
CD
330
C0
100
AcDbXrecord
280
1
1000
auto
  0
XRECORD
  5
CE
330
C0
100
AcDbXrecord
280
1
1000
auto
  0
XRECORD
  5
CF
330
C0
100
AcDbXrecord
280
1
1000
auto
  0
XRECORD
  5
D0
330
C0
100
AcDbXrecord
280
1
1000
auto
  0
XRECORD
  5
D1
330
C0
100
AcDbXrecord
280
1
290
0
  0
XRECORD
  5
D2
330
C0
100
AcDbXrecord
280
1
290
0
  0
XRECORD
  5
D3
330
C0
100
AcDbXrecord
280
1
290
0
  0
XRECORD
  5
D4
330
C0
100
AcDbXrecord
280
1
290
0
  0
XRECORD
  5
D5
330
C0
100
AcDbXrecord
280
1
 90
65537
  0
XRECORD
  5
D6
330
C0
100
AcDbXrecord
280
1
 90
65537
  0
XRECORD
  5
D7
330
C0
100
AcDbXrecord
280
1
 90
65537
  0
XRECORD
  5
D8
330
C0
100
AcDbXrecord
280
1
 90
65537
  0
XRECORD
  5
D9
330
C0
100
AcDbXrecord
280
1
1000
auto
  0
XRECORD
  5
DA
330
C0
100
AcDbXrecord
280
1
1000
auto
  0
XRECORD
  5
DB
330
C0
100
AcDbXrecord
280
1
1000
auto
  0
XRECORD
  5
DC
330
C0
100
AcDbXrecord
280
1
1000
auto
  0
XRECORD
  5
DD
330
C0
100
AcDbXrecord
280
1
1000
auto
  0
XRECORD
  5
DE
330
C0
100
AcDbXrecord
280
1
1000
auto
  0
XRECORD
  5
DF
330
C0
100
AcDbXrecord
280
1
1000
auto
  0
XRECORD
  5
E0
330
C0
100
AcDbXrecord
280
1
1000
auto
  0
XRECORD
  5
E1
330
C0
100
AcDbXrecord
280
1
 90
1
  0
XRECORD
  5
E2
330
C0
100
AcDbXrecord
280
1
 40
10.0
  0
XRECORD
  5
E3
330
C0
100
AcDbXrecord
280
1
 40
10.0
  0
XRECORD
  5
E4
330
C0
100
AcDbXrecord
280
1
 40
10.0
  0
XRECORD
  5
E5
330
C0
100
AcDbXrecord
280
1
 40
10.0
  0
XRECORD
  5
E6
330
C0
100
AcDbXrecord
280
1
290
0
  0
XRECORD
  5
E7
330
C0
100
AcDbXrecord
280
1
 90
1
  0
XRECORD
  5
E8
330
C0
100
AcDbXrecord
280
1
 40
-3.9216547207046961
  0
XRECORD
  5
E9
330
C0
100
AcDbXrecord
280
1
 40
-19.1358185057637797
  0
XRECORD
  5
EA
330
C0
100
AcDbXrecord
280
1
1000
Landscape
  0
XRECORD
  5
EB
330
C0
100
AcDbXrecord
280
1
 40
297.0
  0
XRECORD
  5
EC
330
C0
100
AcDbXrecord
280
1
 40
210.0
  0
XRECORD
  5
ED
330
C0
100
AcDbXrecord
280
1
1000
1.3
  0
XRECORD
  5
EE
330
C0
100
AcDbXrecord
280
1
290
1
  0
XRECORD
  5
EF
330
C0
100
AcDbXrecord
280
1
290
0
  0
XRECORD
  5
F0
330
C0
100
AcDbXrecord
280
1
1000
Inside
  0
XRECORD
  5
F1
330
C0
100
AcDbXrecord
280
1
1000
Arial,10,-1,5,50,0,0,0,0,0
  0
XRECORD
  5
F2
330
C0
100
AcDbXrecord
280
1
1000
TopLeft
  0
XRECORD
  5
F3
330
C0
100
AcDbXrecord
280
1
1000
3.24.3
  0
XRECORD
  5
F4
330
C0
100
AcDbXrecord
280
1
 90
4
  0
XRECORD
  5
F6
330
C0
100
AcDbXrecord
280
1
 40
130.5644279120102738
  0
XRECORD
  5
F7
330
C0
100
AcDbXrecord
280
1
 40
350.7095031572365542
  0
ENDSEC
  0
EOF
